<svg width="296" height="296" viewBox="0 0 296 296" fill="none" xmlns="http://www.w3.org/2000/svg">
<path d="M108.505 45.6617L104.654 44.5171L105.562 41.3376C105.744 40.7127 106.003 40.0621 106.336 39.3858C106.67 38.7095 107.017 38.0711 107.377 37.4706C107.753 36.8362 108.092 36.299 108.393 35.859L108.203 35.6702C107.689 35.8162 107.083 35.9794 106.384 36.16C105.701 36.3067 104.998 36.4325 104.273 36.5373C103.548 36.6421 102.874 36.6876 102.25 36.6739L98.9734 36.6016L99.0419 32.5662L102.318 32.6384C102.968 32.6436 103.655 32.7203 104.381 32.8685C105.107 33.0167 105.817 33.1986 106.509 33.4145C107.218 33.5964 107.818 33.7874 108.308 33.9874L108.446 33.7716C108.149 33.3093 107.788 32.7841 107.363 32.1959C106.955 31.5739 106.568 30.9307 106.203 30.2663C105.828 29.5767 105.534 28.9162 105.32 28.2848L104.254 25.1404L108.043 23.8566L109.108 27.001C109.322 27.6324 109.49 28.3357 109.612 29.1109C109.725 29.8609 109.809 30.6068 109.864 31.3486C109.909 32.0651 109.929 32.7059 109.924 33.271L110.165 33.3583C110.457 32.893 110.817 32.3768 111.245 31.8097C111.663 31.2173 112.116 30.6417 112.602 30.0827C113.088 29.5237 113.588 29.0447 114.1 28.6458L116.696 26.5837L119.203 29.7462L116.608 31.8083C116.146 32.1901 115.595 32.5597 114.956 32.917C114.317 33.2744 113.67 33.6065 113.013 33.9133C112.374 34.1864 111.806 34.4211 111.309 34.6175L111.285 34.9212C111.792 35.0874 112.375 35.3122 113.034 35.5956C113.71 35.8452 114.386 36.137 115.063 36.4709C115.73 36.7796 116.314 37.1309 116.813 37.5248L119.505 39.4847L117.143 42.7346L114.401 40.7497C113.91 40.3811 113.402 39.9198 112.876 39.3659C112.35 38.8119 111.854 38.262 111.388 37.7162C110.938 37.1366 110.556 36.6325 110.242 36.204L109.977 36.2939C110.013 36.8165 110.016 37.449 109.986 38.1912C109.948 38.9082 109.888 39.6464 109.807 40.4057C109.727 41.1651 109.591 41.8446 109.4 42.4443L108.505 45.6617Z" fill="white"/>
<path d="M67.5689 78.4192L47.1106 57.5842L53.932 50.8862C55.2829 49.5597 56.7053 48.6675 58.1992 48.2097C59.7121 47.7333 61.202 47.7091 62.669 48.1374C64.1362 48.5279 65.4958 49.3606 66.7476 50.6354C67.9807 51.8912 68.7884 53.2658 69.1708 54.7589C69.5531 56.2521 69.5018 57.7414 69.0168 59.2266C68.5319 60.7119 67.6139 62.1178 66.263 63.4443L62.5241 67.1156L70.6513 75.3925L67.5689 78.4192ZM59.8056 64.3471L63.5445 60.6758C64.6101 59.6296 65.1485 58.4842 65.1599 57.2397C65.1716 55.9576 64.6543 54.7837 63.608 53.7182C62.5431 52.6336 61.3789 52.095 60.1154 52.1023C58.8709 52.091 57.7159 52.6084 56.6504 53.6547L52.9115 57.326L59.8056 64.3471Z" fill="white"/>
<path d="M59.0811 91.037C58.1029 92.5638 56.9736 93.7088 55.693 94.4719C54.4043 95.1982 53.0269 95.5192 51.5607 95.435C50.0865 95.314 48.6196 94.786 47.16 93.851L36.2473 86.8601C34.7653 85.9107 33.6724 84.7988 32.9686 83.5246C32.2792 82.2279 32.0062 80.8496 32.1497 79.3897C32.2851 77.893 32.8419 76.3812 33.82 74.8543C34.7982 73.3274 35.9316 72.2008 37.2203 71.4745C38.5008 70.7114 39.867 70.3832 41.3188 70.4899C42.785 70.5741 44.2479 71.0837 45.7074 72.0187L56.6539 79.0312C58.1134 79.9662 59.1991 81.0892 59.911 82.4003C60.6148 83.6746 60.899 85.0601 60.7636 86.5568C60.6201 88.0167 60.0593 89.5101 59.0811 91.037ZM55.8477 88.9656C56.6388 87.7306 56.899 86.583 56.6281 85.5227C56.3492 84.4256 55.581 83.4743 54.3236 82.6688L43.4108 75.6778C42.1309 74.8579 40.9456 74.5578 39.8548 74.7774C38.7784 74.9746 37.8446 75.6907 37.0535 76.9257C36.2767 78.1382 36.0165 79.2858 36.273 80.3685C36.5295 81.4512 37.2977 82.4025 38.5776 83.2225L49.4903 90.2134C50.7478 91.0189 51.9331 91.3191 53.0464 91.1138C54.1371 90.8942 55.0709 90.1781 55.8477 88.9656Z" fill="white"/>
<path d="M47.5148 114.186L23.7619 105.65L21.1241 112.991L17.3598 111.638L24.0963 92.8917L27.8606 94.2444L25.2228 101.585L48.9757 110.12L47.5148 114.186Z" fill="white"/>
<path d="M42.9768 159.022C43.166 160.825 42.9987 162.425 42.4749 163.82C41.9217 165.192 41.0462 166.303 39.8483 167.153C38.6212 167.979 37.1457 168.482 35.4218 168.663L22.5326 170.016C20.7822 170.199 19.2343 170.013 17.8889 169.457C16.5408 168.875 15.467 167.969 14.6676 166.739C13.8389 165.485 13.3299 163.957 13.1406 162.153C12.9514 160.35 13.1333 158.762 13.6865 157.39C14.2103 155.994 15.0726 154.885 16.2732 154.062C17.4711 153.212 18.9319 152.697 20.6558 152.516L33.5848 151.159C35.3087 150.978 36.858 151.178 38.2326 151.757C39.578 152.313 40.665 153.218 41.4938 154.472C42.2932 155.702 42.7875 157.218 42.9768 159.022ZM39.1577 159.423C39.0047 157.964 38.4913 156.905 37.6178 156.246C36.7149 155.563 35.5209 155.3 34.0357 155.456L21.1465 156.808C19.6348 156.967 18.5215 157.473 17.8066 158.325C17.0889 159.151 16.8066 160.294 16.9596 161.752C17.1099 163.184 17.6233 164.243 18.4996 164.929C19.376 165.615 20.57 165.878 22.0817 165.719L34.9709 164.367C36.4561 164.211 37.5694 163.705 38.3108 162.85C39.0257 161.997 39.308 160.855 39.1577 159.423Z" fill="white"/>
<path d="M48.3953 184.326L24.5118 192.489L27.0344 199.87L23.2494 201.163L16.807 182.314L20.592 181.02L23.1146 188.401L46.9982 180.238L48.3953 184.326Z" fill="white"/>
<path d="M78.6292 228.612L57.8475 249.125L54.8128 246.05L63.4671 237.508L60.7414 234.747L47.9004 239.047L44.5846 235.688L59.3815 230.75L65.1415 214.948L68.5415 218.392L63.559 232.078L66.2285 234.782L75.5945 225.538L78.6292 228.612Z" fill="white"/>
<path d="M91.134 236.981C92.6635 237.955 93.8226 239.089 94.6116 240.382C95.3637 241.683 95.7108 243.074 95.6529 244.554C95.5582 246.043 95.0453 247.519 94.1141 248.981L87.1516 259.912C86.2061 261.396 85.0859 262.485 83.791 263.178C82.4736 263.856 81.0735 264.118 79.5907 263.964C78.0712 263.818 76.5467 263.258 75.0173 262.284C73.4878 261.31 72.3471 260.172 71.5949 258.871C70.8428 257.57 70.507 256.187 70.5873 254.72C70.6309 253.262 71.1254 251.791 72.0709 250.306L75.7146 252.627C74.898 253.909 74.6122 255.102 74.8572 256.207C75.1022 257.311 75.8432 258.258 77.0802 259.045C78.3172 259.833 79.4993 260.112 80.6263 259.881C81.7308 259.636 82.6842 258.884 83.4865 257.625L90.4704 246.66C91.2727 245.4 91.5585 244.207 91.3278 243.08C91.0604 241.961 90.3081 241.008 89.0711 240.22C87.834 239.432 86.6633 239.161 85.5587 239.405C84.4399 239.673 83.4793 240.436 82.677 241.696L79.0334 239.375C79.9646 237.913 81.0889 236.843 82.4063 236.165C83.7012 235.472 85.0972 235.191 86.5943 235.323C88.0913 235.454 89.6046 236.007 91.134 236.981Z" fill="white"/>
<path d="M122.097 251.299L105.285 276.307L99.9351 274.4L102.73 244.397L106.837 245.86L106.01 253.422L113.81 256.202L117.952 249.822L122.097 251.299ZM111.861 259.286L105.607 257.057L104.657 265.679C104.482 267.202 104.324 268.519 104.183 269.629C104.008 270.756 103.891 271.521 103.832 271.924C104.042 271.574 104.435 270.908 105.012 269.924C105.58 268.966 106.286 267.859 107.13 266.603L111.861 259.286Z" fill="white"/>
<path d="M144.104 254.277L140.678 283.275L132.137 282.266C129.383 281.941 127.303 281.024 125.897 279.515C124.491 278.006 123.925 276.087 124.201 273.756C124.357 272.432 124.785 271.315 125.483 270.403C126.152 269.516 127.021 268.867 128.089 268.456C129.158 268.045 130.368 267.92 131.719 268.079L131.672 268.476C130.212 268.331 128.961 267.901 127.917 267.187C126.871 266.499 126.095 265.562 125.591 264.375C125.087 263.187 124.926 261.826 125.107 260.29C125.301 258.648 125.842 257.248 126.731 256.091C127.59 254.957 128.734 254.139 130.162 253.637C131.565 253.131 133.18 252.986 135.007 253.202L144.104 254.277ZM139.496 257.478L134.928 256.939C133.392 256.757 132.125 257.024 131.128 257.738C130.131 258.453 129.546 259.538 129.374 260.995C129.198 262.478 129.508 263.723 130.302 264.73C131.096 265.737 132.261 266.331 133.797 266.512L138.365 267.052L139.496 257.478ZM137.943 270.627L133.613 270.115C132.183 269.946 131.012 270.197 130.1 270.868C129.189 271.539 128.656 272.524 128.503 273.821C128.349 275.119 128.639 276.187 129.373 277.026C130.103 277.891 131.17 278.406 132.574 278.572L136.943 279.088L137.943 270.627Z" fill="white"/>
<path d="M188.028 250.131L191.885 251.255L190.994 254.44C190.814 255.066 190.56 255.717 190.229 256.396C189.899 257.074 189.555 257.714 189.199 258.316C188.826 258.952 188.49 259.491 188.191 259.933L188.382 260.121C188.895 259.972 189.501 259.806 190.199 259.622C190.88 259.471 191.583 259.342 192.307 259.233C193.032 259.125 193.706 259.076 194.33 259.086L197.607 259.141L197.559 263.177L194.283 263.122C193.633 263.12 192.945 263.047 192.218 262.903C191.492 262.758 190.781 262.58 190.088 262.368C189.378 262.189 188.777 262.002 188.286 261.804L188.149 262.021C188.449 262.481 188.812 263.005 189.24 263.591C189.651 264.211 190.041 264.852 190.411 265.514C190.789 266.202 191.087 266.861 191.304 267.491L192.386 270.63L188.604 271.933L187.522 268.795C187.305 268.164 187.133 267.462 187.007 266.687C186.89 265.938 186.802 265.193 186.744 264.451C186.695 263.735 186.671 263.094 186.674 262.529L186.433 262.443C186.142 262.91 185.785 263.428 185.361 263.997C184.945 264.592 184.496 265.17 184.012 265.731C183.529 266.293 183.032 266.774 182.522 267.176L179.937 269.251L177.413 266.102L179.998 264.026C180.457 263.642 181.006 263.27 181.643 262.909C182.28 262.548 182.926 262.213 183.581 261.903C184.219 261.626 184.786 261.389 185.282 261.19L185.304 260.886C184.796 260.722 184.212 260.501 183.551 260.221C182.874 259.974 182.197 259.686 181.518 259.356C180.849 259.051 180.264 258.702 179.762 258.311L177.061 256.365L179.405 253.103L182.158 255.074C182.651 255.44 183.161 255.898 183.69 256.45C184.218 257.001 184.717 257.548 185.187 258.091C185.64 258.669 186.024 259.171 186.341 259.598L186.605 259.506C186.566 258.984 186.56 258.351 186.586 257.609C186.621 256.892 186.676 256.153 186.753 255.394C186.83 254.634 186.962 253.954 187.15 253.353L188.028 250.131Z" fill="white"/>
<path d="M228.793 217.16L249.359 237.889L242.573 244.622C241.229 245.956 239.811 246.855 238.32 247.321C236.81 247.805 235.32 247.837 233.851 247.416C232.381 247.033 231.017 246.208 229.759 244.94C228.519 243.69 227.705 242.32 227.314 240.829C226.924 239.338 226.968 237.848 227.445 236.36C227.922 234.873 228.833 233.462 230.177 232.128L233.897 228.438L225.726 220.203L228.793 217.16ZM236.629 231.192L232.91 234.883C231.85 235.934 231.317 237.083 231.312 238.327C231.307 239.609 231.831 240.78 232.882 241.84C233.953 242.919 235.12 243.452 236.383 243.438C237.628 243.443 238.78 242.919 239.84 241.868L243.56 238.177L236.629 231.192Z" fill="white"/>
<path d="M237.215 204.499C238.185 202.967 239.308 201.816 240.585 201.046C241.87 200.313 243.245 199.985 244.712 200.061C246.187 200.175 247.657 200.695 249.121 201.622L260.07 208.556C261.557 209.498 262.656 210.604 263.366 211.875C264.062 213.168 264.342 214.545 264.207 216.005C264.079 217.503 263.53 219.017 262.56 220.549C261.59 222.081 260.462 223.214 259.177 223.947C257.901 224.717 256.536 225.052 255.084 224.953C253.617 224.876 252.152 224.374 250.687 223.447L239.705 216.492C238.24 215.564 237.149 214.447 236.43 213.139C235.719 211.869 235.428 210.485 235.556 208.987C235.692 207.527 236.245 206.031 237.215 204.499ZM240.459 206.553C239.674 207.792 239.42 208.941 239.696 210C239.981 211.096 240.754 212.043 242.016 212.842L252.965 219.776C254.249 220.589 255.436 220.883 256.526 220.658C257.601 220.455 258.531 219.734 259.316 218.495C260.086 217.278 260.34 216.129 260.078 215.048C259.816 213.967 259.043 213.019 257.759 212.206L246.81 205.272C245.548 204.473 244.361 204.179 243.249 204.39C242.159 204.616 241.229 205.337 240.459 206.553Z" fill="white"/>
<path d="M248.66 181.29L272.457 189.701L275.057 182.347L278.828 183.68L272.189 202.461L268.418 201.128L271.018 193.774L247.22 185.363L248.66 181.29Z" fill="white"/>
<path d="M252.964 136.431C252.766 134.628 252.925 133.028 253.441 131.629C253.987 130.255 254.857 129.139 256.05 128.283C257.273 127.451 258.746 126.94 260.469 126.75L273.351 125.33C275.1 125.137 276.649 125.316 277.997 125.864C279.349 126.44 280.427 127.34 281.233 128.566C282.068 129.816 282.585 131.341 282.784 133.144C282.982 134.946 282.809 136.535 282.263 137.91C281.746 139.308 280.89 140.422 279.693 141.251C278.5 142.107 277.042 142.63 275.319 142.82L262.397 144.244C260.674 144.434 259.124 144.243 257.746 143.67C256.398 143.121 255.306 142.222 254.471 140.973C253.665 139.747 253.163 138.233 252.964 136.431ZM256.781 136.01C256.942 137.468 257.461 138.524 258.338 139.178C259.244 139.857 260.44 140.114 261.924 139.95L274.806 138.53C276.317 138.364 277.427 137.852 278.138 136.996C278.851 136.166 279.128 135.022 278.967 133.565C278.809 132.133 278.29 131.077 277.41 130.396C276.53 129.715 275.335 129.458 273.824 129.624L260.942 131.044C259.458 131.208 258.347 131.719 257.61 132.578C256.9 133.435 256.623 134.579 256.781 136.01Z" fill="white"/>
<path d="M247.414 111.155L271.255 102.868L268.693 95.5002L272.472 94.1869L279.012 113.002L275.234 114.316L272.673 106.948L248.832 115.236L247.414 111.155Z" fill="white"/>
<path d="M216.95 67.0271L237.624 46.4065L240.675 49.4652L232.065 58.0524L234.805 60.7995L247.624 56.4322L250.957 59.7741L236.186 64.7894L230.508 80.6212L227.09 77.1944L232.001 63.4829L229.318 60.7924L220 70.0858L216.95 67.0271Z" fill="white"/>
<path d="M204.401 58.7235C202.867 57.7573 201.702 56.6299 200.906 55.3411C200.147 54.0439 199.793 52.6548 199.843 51.1738C199.93 49.6845 200.435 48.2064 201.359 46.7396L208.264 35.7725C209.202 34.2831 210.316 33.1887 211.608 32.4891C212.921 31.8038 214.32 31.5342 215.804 31.6805C217.324 31.8184 218.851 32.3705 220.386 33.3367C221.92 34.3029 223.067 35.4345 223.826 36.7317C224.585 38.0288 224.928 39.4108 224.855 40.8776C224.819 42.336 224.332 43.8099 223.395 45.2993L219.739 42.9975C220.549 41.7112 220.828 40.5165 220.578 39.4132C220.327 38.31 219.581 37.3677 218.34 36.5862C217.099 35.8047 215.915 35.5322 214.789 35.7688C213.686 36.0195 212.737 36.7767 211.941 38.0404L205.014 49.0414C204.219 50.3051 203.939 51.4998 204.176 52.6256C204.449 53.7431 205.206 54.6925 206.447 55.474C207.688 56.2555 208.861 56.5208 209.964 56.2701C211.081 55.9968 212.038 55.2283 212.833 53.9646L216.489 56.2664C215.566 57.7332 214.447 58.8093 213.133 59.4946C211.842 60.1941 210.447 60.4821 208.95 60.3584C207.452 60.2346 205.936 59.6897 204.401 58.7235Z" fill="white"/>
<path d="M173.364 44.5673L190.045 19.4725L195.405 21.3514L192.767 51.3686L188.652 49.9263L189.439 42.3607L181.625 39.6217L177.517 46.0228L173.364 44.5673ZM183.558 36.5267L189.824 38.7233L190.729 30.0969C190.896 28.5729 191.047 27.2554 191.182 26.1442C191.351 25.0167 191.464 24.251 191.521 23.847C191.313 24.198 190.923 24.8667 190.351 25.8531C189.788 26.8143 189.088 27.9252 188.251 29.1858L183.558 36.5267Z" fill="white"/>
<path d="M151.342 41.7042L154.617 12.6884L163.163 13.6529C165.918 13.964 168.003 14.8702 169.417 16.3715C170.831 17.8729 171.406 19.7895 171.143 22.1214C170.994 23.4463 170.572 24.5661 169.879 25.4807C169.214 26.3719 168.349 27.0256 167.282 27.4419C166.215 27.8582 165.006 27.9901 163.655 27.8376L163.7 27.4401C165.16 27.5781 166.414 28.0014 167.461 28.71C168.511 29.3921 169.291 30.3255 169.802 31.5102C170.312 32.6949 170.481 34.0557 170.307 35.5926C170.122 37.2355 169.588 38.6378 168.705 39.7995C167.852 40.9377 166.713 41.7617 165.286 42.2717C163.887 42.7846 162.273 42.9379 160.444 42.7315L151.342 41.7042ZM155.933 38.4787L160.504 38.9946C162.041 39.1681 163.306 38.8949 164.3 38.1751C165.293 37.4554 165.872 36.3668 166.037 34.9094C166.204 33.4255 165.888 32.1822 165.089 31.1796C164.29 30.1769 163.122 29.5889 161.585 29.4154L157.014 28.8995L155.933 38.4787ZM157.418 25.3222L161.75 25.8112C163.181 25.9727 164.351 25.7156 165.259 25.0398C166.167 24.3641 166.694 23.377 166.841 22.0786C166.987 20.7802 166.692 19.7136 165.954 18.879C165.219 18.0178 164.15 17.508 162.745 17.3495L158.373 16.856L157.418 25.3222Z" fill="white"/>
</svg>
