<svg width="112" height="112" viewBox="0 0 112 112" fill="none" xmlns="http://www.w3.org/2000/svg">
<path d="M37.9346 98.7465C36.6766 98.7465 35.6672 98.3808 34.9066 97.6494C34.1752 96.918 33.8095 95.9233 33.8095 94.6653C33.8095 93.4072 34.1752 92.4125 34.9066 91.6811C35.6672 90.9204 36.6766 90.5401 37.9346 90.5401C39.1926 90.5401 40.1874 90.9204 40.9188 91.6811C41.6794 92.4125 42.0598 93.4072 42.0598 94.6653C42.0598 95.9233 41.6794 96.918 40.9188 97.6494C40.1874 98.3808 39.1926 98.7465 37.9346 98.7465Z" fill="white"/>
<path d="M58.8207 98.7027C56.9776 98.7027 55.3685 98.4101 53.9934 97.825C52.6184 97.2398 51.5359 96.4353 50.746 95.4113C49.9853 94.3581 49.5757 93.1293 49.5172 91.725H55.0028C55.0613 92.4857 55.427 93.1001 56.0999 93.5682C56.802 94.0363 57.709 94.2703 58.8207 94.2703H60.7517C62.0974 94.2703 63.1068 94.007 63.7797 93.4804C64.4526 92.9538 64.789 92.237 64.789 91.33C64.789 90.4816 64.4818 89.8233 63.8675 89.3552C63.2823 88.8579 62.3608 88.5361 61.1027 88.3898L58.1186 87.9509C55.3685 87.5706 53.3498 86.8392 52.0625 85.7567C50.7752 84.6742 50.1316 83.0505 50.1316 80.8855C50.1316 78.6328 50.8922 76.892 52.4136 75.6632C53.9349 74.4052 56.173 73.7762 59.1279 73.7762H60.7955C63.4871 73.7762 65.6375 74.3759 67.2466 75.5755C68.8557 76.775 69.7187 78.3841 69.8358 80.4028H64.3502C64.2624 79.7591 63.8967 79.2325 63.2531 78.8229C62.6387 78.4133 61.8195 78.2085 60.7955 78.2085H59.1279C57.8699 78.2085 56.9483 78.4426 56.3632 78.9107C55.8073 79.3495 55.5294 80.0078 55.5294 80.8855C55.5294 81.7047 55.7781 82.3191 56.2754 82.7287C56.7728 83.109 57.5773 83.3869 58.6891 83.5625L61.8049 84.0013C64.672 84.4109 66.7785 85.1862 68.1243 86.3272C69.4993 87.4389 70.1868 89.0919 70.1868 91.2862C70.1868 93.6267 69.3823 95.4552 67.7732 96.7717C66.1933 98.059 63.8528 98.7027 60.7517 98.7027H58.8207Z" fill="white"/>
<path d="M76.6099 98.3077V66.2719H82.0955V74.1712L81.9638 78.779H83.4559L81.9638 80.0517C81.9638 78.0623 82.5343 76.5117 83.6753 75.3999C84.8456 74.2882 86.44 73.7323 88.4587 73.7323C90.8285 73.7323 92.7155 74.5222 94.1199 76.1021C95.5534 77.6819 96.2702 79.803 96.2702 82.4653V98.3077H90.7846V83.0358C90.7846 81.573 90.4043 80.4467 89.6436 79.6567C88.883 78.8668 87.8151 78.4718 86.44 78.4718C85.0942 78.4718 84.0264 78.8814 83.2365 79.7006C82.4758 80.5198 82.0955 81.6901 82.0955 83.2114V98.3077H76.6099Z" fill="white"/>
<rect x="0.5" y="0.5" width="111" height="111" rx="12.9615" stroke="white"/>
</svg>
