<svg width="416" height="416" viewBox="0 0 416 416" fill="none" xmlns="http://www.w3.org/2000/svg">
<rect width="416" height="416" rx="50" fill="white"/>
<path d="M140.9 365.63C136.227 365.63 132.478 364.272 129.653 361.555C126.936 358.838 125.578 355.144 125.578 350.471C125.578 345.798 126.936 342.104 129.653 339.387C132.478 336.562 136.227 335.149 140.9 335.149C145.573 335.149 149.267 336.562 151.984 339.387C154.809 342.104 156.222 345.798 156.222 350.471C156.222 355.144 154.809 358.838 151.984 361.555C149.267 364.272 145.573 365.63 140.9 365.63Z" fill="black"/>
<path d="M218.477 365.467C211.631 365.467 205.654 364.38 200.547 362.207C195.44 360.034 191.419 357.045 188.485 353.242C185.66 349.33 184.138 344.766 183.921 339.55H204.296C204.513 342.375 205.872 344.657 208.371 346.396C210.979 348.135 214.348 349.004 218.477 349.004H225.649C230.648 349.004 234.397 348.026 236.896 346.07C239.395 344.114 240.645 341.452 240.645 338.083C240.645 334.932 239.504 332.487 237.222 330.748C235.049 328.901 231.626 327.705 226.953 327.162L215.869 325.532C205.654 324.119 198.156 321.403 193.375 317.382C188.594 313.361 186.203 307.33 186.203 299.289C186.203 290.922 189.028 284.456 194.679 279.892C200.33 275.219 208.643 272.883 219.618 272.883H225.812C235.809 272.883 243.796 275.111 249.773 279.566C255.75 284.021 258.955 289.998 259.39 297.496H239.015C238.689 295.105 237.331 293.149 234.94 291.628C232.658 290.107 229.615 289.346 225.812 289.346H219.618C214.945 289.346 211.522 290.215 209.349 291.954C207.284 293.584 206.252 296.029 206.252 299.289C206.252 302.332 207.176 304.614 209.023 306.135C210.87 307.548 213.859 308.58 217.988 309.232L229.561 310.862C240.21 312.383 248.034 315.263 253.033 319.501C258.14 323.63 260.694 329.77 260.694 337.92C260.694 346.613 257.706 353.405 251.729 358.295C245.861 363.076 237.168 365.467 225.649 365.467H218.477Z" fill="black"/>
<path d="M284.551 364V245.01H304.926V274.35L304.437 291.465H309.979L304.437 296.192C304.437 288.803 306.556 283.043 310.794 278.914C315.141 274.785 321.063 272.72 328.561 272.72C337.363 272.72 344.372 275.654 349.588 281.522C354.913 287.39 357.575 295.268 357.575 305.157V364H337.2V307.276C337.2 301.843 335.787 297.659 332.962 294.725C330.137 291.791 326.17 290.324 321.063 290.324C316.064 290.324 312.098 291.845 309.164 294.888C306.339 297.931 304.926 302.277 304.926 307.928V364H284.551Z" fill="black"/>
</svg>
